<svg id="Layer_1" data-name="Layer 1" xmlns="http://www.w3.org/2000/svg" viewBox="0 0 140 218">
  <defs>
    <style>
      .cls-1 {
        fill: #d0c3a9;
      }

      .cls-2 {
        fill: #6d5d51;
      }
    </style>
  </defs>
  <title>winthrop_default_sig</title>
  <rect class="cls-1" width="140" height="218"/>
  <g id="tZw32o.tif">
    <path class="cls-2" d="M66.55,114.17a13.49,13.49,0,0,0,3.72,2.36,20.31,20.31,0,0,1,6.11,3.8,4.43,4.43,0,0,0-.52.41c-.15.16-.39.37-.37.53a2.52,2.52,0,0,1-1.47,2.5,23.47,23.47,0,0,1-5.43,2.68,12.39,12.39,0,0,0-1.86.78c-1.83.94-3.87,1.23-5.8,1.86a42.31,42.31,0,0,1-8.73,1.44c-1.51.16-3,.25-4.54.32a6.38,6.38,0,0,1-3-.61,8.11,8.11,0,0,0-1.6-.48,1.1,1.1,0,0,0-1.39.62c-1,1.83-2.11,3.63-3.1,5.48-.59,1.1-1,2.28-1.55,3.42s-1.1,2.26-1.56,3.42-.83,2.55-1.3,3.81c-.26.7-.67,1.35-1,2-.48,1-.94,2.08-1.45,3.21-.41.09-1-.89-1.61.27a6.51,6.51,0,0,1,.44-3.24l1.83-5c.63-1.74,1.19-3.51,1.93-5.2.93-2.13,2-4.21,3-6.28.45-.87,1-1.67,1.54-2.51a1.33,1.33,0,0,0,.24-.66c-.05-1.23-.09-2.47-.25-3.69,0-.38-.32-.72-.39-1.18a31.73,31.73,0,0,1-.09-6c.05-1.28,0-2.57.13-3.85.06-.74.33-1.46.44-2.19a28.66,28.66,0,0,1,1.4-5.76,25.34,25.34,0,0,1,1.12-2.33c.28-.57.54-1.14.83-1.7.54-1,1.07-2.1,1.63-3.14.37-.69.72-1.38,1.15-2a45.84,45.84,0,0,1,4.7-6.11c.82-.92,1.63-1.85,2.53-2.69a28.4,28.4,0,0,1,2.34-1.82c.91-.69,1.82-1.38,2.74-2.05s1.71-1.27,2.6-1.84c1.23-.78,2.52-1.49,3.76-2.26.5-.31.92-.73,1.39-1.08a33.43,33.43,0,0,1,7.36-4c2.31-1,4.45-2.25,6.68-3.39,1.77-.9,3.53-1.82,5.35-2.62,2-.88,4.05-1.62,6.08-2.43,3.29-1.31,6.55-2.71,9.88-3.92a31.58,31.58,0,0,1,6.71-2c.16,0,.31-.08.47-.09,1.87-.14,3.74-.33,5.61-.37a4.87,4.87,0,0,0,2.27-.61,6.39,6.39,0,0,1,1.07-.33l-.18.7.86-.09a1.41,1.41,0,0,1,.21.5c0,.5-.07,1-.1,1.4a10.8,10.8,0,0,0-1.33,1.5,20.23,20.23,0,0,1-2.94,3.24c-1.37,1.46-2.87,2.81-4.28,4.24a6.14,6.14,0,0,0-1,1.45,19.16,19.16,0,0,1-4.1,4.67,5,5,0,0,0-1,1.17,16,16,0,0,1-2.69,3.11,15.48,15.48,0,0,0-2.7,3.55,5.63,5.63,0,0,1-.83.94q-1.52,1.82-3,3.66a6.94,6.94,0,0,0-.86,1.14,17.34,17.34,0,0,1-2.67,3.49A9.06,9.06,0,0,0,89,95.74c-1.13,2-2.65,3.72-3.69,5.77-.66,1.3-1.29,2.62-2,3.88-.91,1.66-1.41,3.5-2.45,5.08a1.09,1.09,0,0,0-.17.44c-.17,1.31-1.14,1.71-2.22,2.12a16.37,16.37,0,0,1-4.83.7c-2.15.16-4.31.18-6.46.27A4.33,4.33,0,0,0,66.55,114.17ZM80,90.56a6.93,6.93,0,0,1,1.24-.69c1.06-.34,1.77-1.37,2.94-1.47.66-.82,1.69-1,2.55-1.46,2.84-1.49,5.71-2.93,8.56-4.42a2.4,2.4,0,0,0,1.06-.92,9.49,9.49,0,0,1,1.79-2.19c.71-.79,1.5-1.51,2.21-2.31s1.57-1.89,2.38-2.81a18.72,18.72,0,0,0,3-3.48A8.37,8.37,0,0,1,107.06,69a32.49,32.49,0,0,1,2.5-2.39,4,4,0,0,0,1.16-1.67,5.68,5.68,0,0,0-1.15.27c-1.85.93-3.69,1.88-5.53,2.83a25.82,25.82,0,0,0-2.32,1.23c-1.11.73-2.16,1.55-3.25,2.32-1.6,1.11-3.15,2.3-4.82,3.29a71.33,71.33,0,0,0-7,5.16c-1.59,1.23-3.07,2.59-4.62,3.88s-2.9,2.33-4.32,3.53q-2.93,2.48-5.8,5c-1.21,1.08-2.35,2.22-3.51,3.34-.93.9-1.79,1.86-2.75,2.71C64,100,62.62,101.7,61.1,103.29c-.72.75-1.09,1.76-1.89,2.37s-1.07,1.4-1.7,2a35,35,0,0,0-3.07,4c-.46.63-.9,1.27-1.35,1.91-.7,1-1.36,2-2.11,3a11,11,0,0,0-2,2.51A9.69,9.69,0,0,1,48,120.83c-.86,1.27-1.77,2.51-2.58,3.82-.54.87-.93,1.82-1.45,2.88a6.66,6.66,0,0,0,1.3.44,35.53,35.53,0,0,0,8.6-.14,34,34,0,0,0,6.08-1.26q3.54-1.1,7-2.35c1.38-.5,2.7-1.14,4.06-1.72a5.87,5.87,0,0,0,2.5-1.46c-1.67-.86-3.23-1.72-4.85-2.46a15,15,0,0,1-4.49-2.79,4.33,4.33,0,0,0-1.84-1.22,4.34,4.34,0,0,1-1.92-1.32c-.59-.52-.26-1.28.49-1.66A5.21,5.21,0,0,1,63,111.2a46.41,46.41,0,0,1,5.13-.37,69.28,69.28,0,0,0,9.2-.36c.58-.05.88-.27,1-.84a3.86,3.86,0,0,1,.24-1.14c1-1.91,1.89-3.84,3-5.69a24,24,0,0,1,1.7-3.22A19.15,19.15,0,0,0,84.6,97c.08-.14.18-.26.27-.39.62-.92,1.21-1.85,1.85-2.75a20.88,20.88,0,0,1,2.27-3c1.06-1,1.69-2.38,2.74-3.4,0,0,0-.14-.06-.35-.48.18-1,.32-1.42.54-1,.51-2,1.14-3.09,1.56A27.66,27.66,0,0,1,82,91C81.19,91.11,80.58,91.2,80,90.56Zm.19-8.67-.46-.19c.8-.63,1.56-1.2,2.29-1.81.94-.78,1.81-1.64,2.78-2.37,1.29-1,2.66-1.85,4-2.77.1-.07.21-.12.3-.19,1-.79,1.9-1.65,2.93-2.36,2.59-1.78,5.23-3.48,7.85-5.22a5.2,5.2,0,0,0,.6-.55l-.19-.28c-1.07.4-2.14.79-3.2,1.21-.81.32-1.59.71-2.41,1-1.11.41-2.26.75-3.37,1.17-1.34.52-2.66,1.09-4,1.65-1.53.66-3.06,1.33-4.59,2-.69.3-1.39.59-2.06.92Q77.31,75.79,74,77.49c-1.91,1-4,1.59-5.72,2.93a22.41,22.41,0,0,1-2.15,1.47A40,40,0,0,0,61.18,85c-1.16.95-2.46,1.72-3.68,2.6-.21.15-.48.38-.51.6-.21,1.55-.36,3.11-.53,4.67-.05.51-.09,1-.13,1.55-.1,1.35-.27,2.7-.25,4.05a3.37,3.37,0,0,1-.68,2.3l-1.16-.32a8,8,0,0,1-.34-2,18.87,18.87,0,0,0-.7-5.16c-.08-.38-.22-.68-.65-.75a1,1,0,0,0-1.1.53c-.35.51-.77,1-1.17,1.46A16.41,16.41,0,0,0,49.06,96c-.88,1.35-1.74,2.72-2.54,4.12-.55.95-1,2-1.47,2.94l-.21.41a19.31,19.31,0,0,0-1.28,2.49,19.77,19.77,0,0,0-1.31,3.68c-.16,1.09-.69,2.13-.76,3.21-.19,2.74-.22,5.5-.3,8.25,0,.88,0,1.76,0,2.63a.59.59,0,0,0,.92.55,1.89,1.89,0,0,0,.71-.62c.47-.72.88-1.49,1.3-2.23.55-1,1.19-1.86,1.79-2.77.82-1.25,1.74-2.44,2.61-3.65l1-1.38c.49-.66,1-1.31,1.46-2,.92-1.29,1.8-2.6,2.74-3.86.75-1,1.56-2,2.35-3s1.44-1.75,2.14-2.65a77,77,0,0,1,5.92-6.24c1-1,2-1.92,3-2.88,1.27-1.24,2.5-2.53,3.82-3.72,1-.92,2.19-1.66,3.23-2.56,1.37-1.19,2.49-2.62,3.95-3.75A4.71,4.71,0,0,1,80.18,81.89Z"/>
  </g>
</svg>
