<svg id="Layer_1" data-name="Layer 1" xmlns="http://www.w3.org/2000/svg" viewBox="0 0 140 218">
  <defs>
    <style>
      .cls-1 {
        fill: #d0c3a9;
      }

      .cls-2 {
        fill: #6d5d51;
      }
    </style>
  </defs>
  <title>winthrop_default_book</title>
  <rect class="cls-1" width="140" height="218"/>
  <g id="_5pW3t9" data-name="5pW3t9">
    <path class="cls-2" d="M71.8,76.16c.39-.37.83-.73,1.22-1.14,2-2.09,4.47-3.45,6.86-5a13,13,0,0,1,4.55-1.5c1.05-.21,2.08-.48,3.16-.59a13.71,13.71,0,0,1,4.71.38c3.06.76,6.11,1.53,9.18,2.26a25,25,0,0,0,4,.73,17.15,17.15,0,0,0,7.53-1c1.62-.64,3.15-1.51,4.74-2.24,1-.48,1.75-.06,1.81,1.11.08,1.83.07,3.66.12,5.49,0,.74.12,1.48.13,2.23,0,1.21-.07,2.42,0,3.63,0,.65-.38,1.43.51,1.89.11.06.09.62,0,.84A19.69,19.69,0,0,1,119,84.94c.1.09.23.31.34.3.88-.09.86.57.86,1.08,0,1.88-.08,3.76-.12,5.64-.05,2.29-.15,4.58-.13,6.88,0,2.92.19,5.84.23,8.76,0,1.88-.08,3.76-.1,5.64,0,2.13-.09,4.25,0,6.38.07,2.69.35,5.37.36,8.06,0,2.06-.32,4.11-.41,6.17,0,1,.15,2.05.18,3.08,0,.59-.05,1.19-.08,1.79,0,.33-.06.66,0,1a1.07,1.07,0,0,1-1.37,1.19,1.1,1.1,0,0,0-1.15.27,12.94,12.94,0,0,1-7.89,2.89,15.58,15.58,0,0,1-5.83-.91c-1.47-.57-3-1-4.48-1.53-2.39-.79-4.78-1.6-7.18-2.33a15.26,15.26,0,0,0-4.81-.58,24.5,24.5,0,0,0-3.52.05,26.06,26.06,0,0,0-3.85,1.14c-.63.21-1.22.55-1.85.8a20.64,20.64,0,0,0-4.68,3.17A32.1,32.1,0,0,0,71,146.07a2.41,2.41,0,0,1-2.44-.25.65.65,0,0,1-.1-.51c.35-.72-.16-1.14-.52-1.61-1.25-1.64-3.07-2.24-5-2.69s-3.62-.86-5.45-1.16c-1.66-.26-3.35-.37-5-.48a4.24,4.24,0,0,0-1.24.31c-2.73.71-5.44,1.47-8.11,2.41A47.05,47.05,0,0,1,36.54,144a13,13,0,0,1-7.52-.74c-2.22-.92-4.39-1.93-6.6-2.89a7.5,7.5,0,0,0-1.21-.33c-.87-.21-1-.42-1-1.28,0-1.89,0-3.78-.14-5.67,0-.82-.42-1.52,0-2.46.33-.79-.12-1.89-.14-2.86,0-1.68,0-3.36,0-5a5.38,5.38,0,0,1,.06-.58c.34-.13.67-.28,1-.4.61-.21,1,.07,1,.74a1,1,0,0,0,.73,1c.48.18,1,.35,1.45.52-.67-.86-1.28-1.71-2-2.5-.34-.39-.6-.85-1.23-1s-.85-.86-.64-1.57a1.54,1.54,0,0,0,.07-.44c0-1.49,0-3,0-4.48,0-1.21.1-2.41.13-3.62,0-1.58.1-3.15.11-4.73,0-3.86,0-7.73,0-11.59,0-.57.08-1.15.08-1.72,0-1.94,0-3.88,0-5.83,0-2.1.12-4.19.11-6.29,0-1.91-.1-3.83-.17-5.74,0-1.21-.1-2.42-.16-3.64a3.41,3.41,0,0,0-.07-.45c-.06-.33-.39-.67.11-1a1.62,1.62,0,0,1,1.53-.2c2.15.78,4,2.14,6.07,3.06a9.82,9.82,0,0,0,6,.43C36,72.47,37.85,72,39.7,71.5c3.28-.84,6.54-1.74,9.82-2.56a8.58,8.58,0,0,1,2.26-.22,48.92,48.92,0,0,1,5,.27,33.27,33.27,0,0,1,5.24,1,20.93,20.93,0,0,1,6.06,2.91A43.61,43.61,0,0,1,71.8,76.16Zm45.94-6.21a10.64,10.64,0,0,1-1.43,1.16,18.18,18.18,0,0,1-6.16,2.07,24,24,0,0,1-6.58,0A71.48,71.48,0,0,1,95.13,71a35.73,35.73,0,0,0-5.63-1.16,20.37,20.37,0,0,0-4.6.27,10,10,0,0,0-2.77.81,27,27,0,0,0-5.38,3.39c-1.62,1.25-3.34,2.36-4.15,4.35-.9.4-.52,1.21-.54,1.85-.05,1.48,0,3,0,4.44,0,1.89-.06,3.79,0,5.68s.2,4.08.21,6.11c0,2.26-.09,4.53-.17,6.79-.16,4.12-.35,8.23-.51,12.35-.06,1.59-.1,3.17-.13,4.76,0,1.79-.06,3.59-.11,5.38-.07,2.35-.16,4.7-.24,7.05-.05,1.55-.13,3.09-.15,4.64,0,1.76,0,3.51,0,5.4.32-.25.52-.42.73-.58a32.68,32.68,0,0,1,7.1-4.28,27.45,27.45,0,0,1,4.34-1.36,15.68,15.68,0,0,1,3.63-.11,23.61,23.61,0,0,1,7.79,1.12c2,.77,4,1.45,6.05,2.17.2.07.4.15.6.21,1.81.51,3.61,1.07,5.44,1.5a9.7,9.7,0,0,0,3.85.2,26.83,26.83,0,0,0,6.76-2.41c.2-.09.5-.29.5-.45.05-.93.05-1.86,0-2.79s-.17-1.91-.11-2.86a47.68,47.68,0,0,0,.41-6.44c0-.51-.18-1-.19-1.52q-.1-4.28-.16-8.56c0-2.32,0-4.63,0-6.95,0-1.66.06-3.32,0-5,0-2.59-.15-5.18-.09-7.77.07-3.09.26-6.19.47-9.28a3.45,3.45,0,0,0-2.18-3.61c-.32-.16-.46-.66-.68-1a8.8,8.8,0,0,1,.84-.37,4.3,4.3,0,0,1,.72-.13c.94-.14.92-.14.92-1.15,0-2.28,0-4.55,0-6.83C117.73,73.3,117.73,71.74,117.74,69.95Zm-49.34,71a2.83,2.83,0,0,0,.18-.57c.08-1.91.18-3.82.2-5.73s-.05-3.82.16-5.74c.24-2.24.24-4.5.29-6.76.07-3,0-6.09.13-9.13.11-3.75.3-7.49.44-11.23.09-2.42.18-4.85.22-7.27s0-4.81,0-7.22.06-5.1,0-7.65a2.37,2.37,0,0,0-.31-1.46,32.19,32.19,0,0,0-3.42-3.29,13.67,13.67,0,0,0-3-1.74,35.58,35.58,0,0,0-3.9-1.44c-.63-.2-1.36-.12-2-.33a14.2,14.2,0,0,0-4.81-.5,32.45,32.45,0,0,0-7.61,1.35c-1.77.44-3.5,1-5.26,1.47s-3.27.73-4.89,1.14a11.43,11.43,0,0,1-9.54-1.51c-.82-.54-1.7-1-2.58-1.47.07,2.81.16,5.49.21,8.17,0,1.79,0,3.58,0,5.38,0,2-.07,4-.07,6,0,1.07.13,2.14.12,3.2,0,1.6-.15,3.2-.16,4.8,0,2.86,0,5.72,0,8.58q0,2.19,0,4.38c0,1.87,0,3.75-.11,5.62,0,.64-.2,1.26.51,1.67a1.42,1.42,0,0,1,.41.48c.6.94,1.19,1.88,1.77,2.84a2.88,2.88,0,0,1,.4.9c.14.72-.65.16-.72.33.15.52.4.89.32,1.17-.14.49-.62.58-1.11.49l-2.26-.41a2.28,2.28,0,0,0-.07.43c0,1.58.06,3.16.16,4.74,0,.2.41.49.67.55,1.07.25,2.15.42,3.25.63-.49,1-.66,1.07-1.66,1.14a10.41,10.41,0,0,1-1.37,0c-.6,0-.69.23-.69.77,0,1.17-.16,2.35-.18,3.52a1.37,1.37,0,0,0,.38,1,11.09,11.09,0,0,0,1.52.77,4,4,0,0,1,1.24.82,3.56,3.56,0,0,0,2.08,1.33c1.3.29,2.62.53,3.92.83a10.79,10.79,0,0,0,5.21-.24c1.25-.33,2.44-.87,3.68-1.28,1.92-.63,3.85-1.26,5.79-1.83,1.68-.5,3.37-1,5.1-1.34,2.67-.51,5.33,0,8,.36,1.2.15,2.38.52,3.57.77C64.72,138.86,66.77,139.21,68.4,140.9Z"/>
  </g>
</svg>
