<svg id="Layer_1" data-name="Layer 1" xmlns="http://www.w3.org/2000/svg" viewBox="0 0 310 180">
  <defs>
    <style>
      .cls-1 {
        fill: #d0c3a9;
      }

      .cls-2 {
        fill: #6d5d51;
      }
    </style>
  </defs>
  <title>default_sig</title>
  <rect class="cls-1" width="311" height="180"/>
  <g id="tZw32o.tif">
    <path class="cls-2" d="M151.55239,94.167a13.48539,13.48539,0,0,0,3.72115,2.361,20.31264,20.31264,0,0,1,6.10545,3.79967,4.43143,4.43143,0,0,0-.51927.40521c-.15027.15663-.38909.37183-.366.52852a2.52147,2.52147,0,0,1-1.46992,2.50282,23.46593,23.46593,0,0,1-5.43161,2.67682,12.39123,12.39123,0,0,0-1.85656.78313c-1.83311.94378-3.87107,1.23081-5.80172,1.859a42.31153,42.31153,0,0,1-8.72638,1.44362c-1.50687.16062-3.02309.247-4.53734.32043a6.37727,6.37727,0,0,1-3.02557-.60641,8.11043,8.11043,0,0,0-1.6015-.48406,1.09624,1.09624,0,0,0-1.38957.622c-1.03614,1.82552-2.1097,3.63111-3.09545,5.48342-.58655,1.10219-1.0298,2.28018-1.54764,3.41947-.51894,1.14169-1.10392,2.25663-1.562,3.4218-.49024,1.24692-.8329,2.55129-1.305,3.80613-.26368.70091-.67434,1.34519-.99213,2.02739-.48155,1.03374-.93989,2.07828-1.45045,3.21233-.4113.09267-1.03349-.88552-1.60816.27421a6.5065,6.5065,0,0,1,.444-3.24158q.9148-2.5101,1.83231-5.01922c.63474-1.73676,1.18723-3.50955,1.92674-5.20053.93193-2.131,1.99081-4.20832,3.04832-6.28156.44528-.873,1.03456-1.67186,1.54145-2.5146a1.32961,1.32961,0,0,0,.24466-.6649c-.0502-1.23334-.09108-2.47159-.24969-3.69331-.04954-.38158-.32069-.72317-.38914-1.17973A31.72822,31.72822,0,0,1,123.4,98.20892c.05193-1.28268.0272-2.57226.12959-3.8515.05909-.73816.3337-1.45642.44114-2.19386a28.66394,28.66394,0,0,1,1.397-5.75691,25.33524,25.33524,0,0,1,1.12323-2.33389c.27677-.56682.54479-1.13811.832-1.69957.5367-1.049,1.075-2.09748,1.63113-3.13625.36821-.68773.72328-1.3756,1.14528-2.04373a45.83608,45.83608,0,0,1,4.69614-6.108c.8214-.91593,1.63393-1.847,2.52965-2.68683a28.39681,28.39681,0,0,1,2.34364-1.82315c.91016-.68909,1.82061-1.37811,2.74269-2.051.85757-.62586,1.7071-1.26758,2.60253-1.83554,1.23458-.78309,2.52038-1.48512,3.76062-2.25969.49613-.30985.92487-.72625,1.39207-1.084a33.433,33.433,0,0,1,7.3582-4.04945c2.31018-.98268,4.45449-2.25252,6.67687-3.38639,1.76944-.90278,3.53479-1.82223,5.35193-2.62055,1.99808-.87782,4.05486-1.62169,6.08331-2.43081,3.29021-1.31242,6.55083-2.70536,9.87676-3.91963a31.58112,31.58112,0,0,1,6.71486-2.04593c.15766-.02037.31161-.07683.46933-.08827,1.87087-.13571,3.74075-.32829,5.6139-.36954a4.86656,4.86656,0,0,0,2.27231-.607,6.38634,6.38634,0,0,1,1.06752-.33494l-.1834.69994.86208-.09331a1.40774,1.40774,0,0,1,.20574.50363c-.00556.50134-.0682,1.00206-.1,1.39793a10.7969,10.7969,0,0,0-1.33069,1.50474,20.22552,20.22552,0,0,1-2.93625,3.24174c-1.37249,1.46484-2.87447,2.80755-4.28037,4.24237a6.14359,6.14359,0,0,0-.98813,1.45348,19.156,19.156,0,0,1-4.09991,4.67253,4.97511,4.97511,0,0,0-.96135,1.17034,15.99829,15.99829,0,0,1-2.68539,3.10757,15.48176,15.48176,0,0,0-2.70483,3.54981,5.62991,5.62991,0,0,1-.82945.94239q-1.51806,1.82119-3.02082,3.6551a6.93844,6.93844,0,0,0-.86217,1.14483,17.33552,17.33552,0,0,1-2.6678,3.4945,9.063,9.063,0,0,0-1.06891,1.55622c-1.13106,1.9858-2.652,3.7153-3.69263,5.7675-.65753,1.29675-1.28548,2.62128-1.97714,3.87964-.91185,1.659-1.40721,3.50126-2.44824,5.08239a1.087,1.087,0,0,0-.167.44062c-.17153,1.30912-1.14374,1.70909-2.21713,2.1226a16.371,16.371,0,0,1-4.83437.7042c-2.15008.15764-4.30969.18431-6.4649.27443A4.33157,4.33157,0,0,0,151.55239,94.167Zm13.43738-23.6091a6.92753,6.92753,0,0,1,1.23838-.693c1.06182-.34166,1.77014-1.37288,2.94482-1.4686.66017-.81836,1.68918-1.00063,2.55493-1.45555,2.84192-1.49332,5.71452-2.92822,8.55877-4.41719a2.40368,2.40368,0,0,0,1.059-.92378,9.49487,9.49487,0,0,1,1.78809-2.19173c.71407-.79027,1.50261-1.51343,2.21314-2.30664.81931-.91465,1.57151-1.88918,2.38425-2.81a18.72107,18.72107,0,0,0,2.9881-3.4826,8.368,8.368,0,0,1,1.33826-1.79485A32.493,32.493,0,0,1,194.5526,46.624a3.989,3.989,0,0,0,1.16481-1.67492,5.67747,5.67747,0,0,0-1.152.26759c-1.85191.92548-3.68974,1.8792-5.53011,2.82769a25.82018,25.82018,0,0,0-2.32242,1.234c-1.11362.72686-2.16118,1.55407-3.25269,2.31589-1.59615,1.114-3.15327,2.29727-4.823,3.2894a71.33217,71.33217,0,0,0-6.95416,5.15716c-1.59063,1.22689-3.07485,2.591-4.62193,3.87531-1.43007,1.18721-2.89982,2.32712-4.31734,3.52887q-2.93026,2.48421-5.80263,5.03633c-1.20515,1.076-2.35385,2.21593-3.51455,3.34093-.92521.89676-1.79258,1.85655-2.75265,2.71326-1.6473,1.47-3.05195,3.16281-4.57037,4.7504-.71526.74785-1.08575,1.7595-1.89242,2.36514-.74175.5569-1.06975,1.39909-1.70342,2.03993a34.98759,34.98759,0,0,0-3.06628,4.02036c-.461.62734-.90083,1.27026-1.3472,1.90826-.70213,1.00354-1.36437,2.03778-2.11362,3.00471a11.02468,11.02468,0,0,0-1.95588,2.50919,9.68612,9.68612,0,0,1-1.07016,1.69481c-.85952,1.2741-1.77191,2.515-2.57924,3.821-.53644.86782-.92846,1.82492-1.45353,2.87944a6.66222,6.66222,0,0,0,1.2996.43867,35.52742,35.52742,0,0,0,8.60168-.14194,33.996,33.996,0,0,0,6.07888-1.25533q3.53695-1.09655,7.02441-2.35033c1.3794-.49684,2.70466-1.14343,4.0567-1.717a5.87348,5.87348,0,0,0,2.49952-1.46095c-1.6743-.85542-3.2321-1.72465-4.8514-2.45808a15.03153,15.03153,0,0,1-4.49185-2.79366,4.32824,4.32824,0,0,0-1.841-1.21974,4.34083,4.34083,0,0,1-1.92018-1.32207c-.58684-.51976-.26257-1.28417.49129-1.66236a5.20556,5.20556,0,0,1,2.09346-.38487,46.40827,46.40827,0,0,1,5.12951-.368,69.27674,69.27674,0,0,0,9.202-.35609c.57529-.05141.88339-.27214.96831-.838a3.86378,3.86378,0,0,1,.23536-1.13819c.95373-1.913,1.8916-3.83808,2.95085-5.69281a24.04739,24.04739,0,0,1,1.69879-3.21784,19.15137,19.15137,0,0,0,1.45322-2.55759c.07726-.1381.18376-.25955.27239-.39163.61527-.917,1.212-1.84694,1.84846-2.749a20.8771,20.8771,0,0,1,2.26677-3.02432c1.06178-1.03489,1.6914-2.38228,2.745-3.40009.02911-.02813-.0198-.137-.0576-.352-.48478.183-.97044.325-1.41861.54376-1.03688.50617-2.01961,1.1426-3.08993,1.55646a27.6603,27.6603,0,0,1-5.17728,1.754C166.19208,71.10961,165.58373,71.198,164.98977,70.55794Zm.186-8.66512-.46106-.18647c.802-.631,1.56041-1.20158,2.28929-1.80767.93732-.77942,1.81174-1.63952,2.78442-2.37012,1.29455-.97238,2.65748-1.85373,3.99166-2.77328.098-.06753.20851-.11847.30056-.19278.97581-.78779,1.9012-1.64858,2.93238-2.35513,2.59122-1.77546,5.2317-3.47893,7.84639-5.22035a5.19914,5.19914,0,0,0,.6032-.55116l-.1857-.2751c-1.0678.40147-2.14062.79016-3.20175,1.20854-.81021.31945-1.59461.706-2.41025,1.00964-1.11458.41488-2.26061.74641-3.36995,1.1739-1.33871.51588-2.65731,1.08505-3.977,1.649-1.5348.65593-3.06208,1.32947-4.59107,1.99894-.68907.3017-1.38605.58848-2.05922.92276q-3.36125,1.66911-6.70686,3.3697c-1.90876.96746-3.99134,1.59-5.71634,2.92536a22.41116,22.41116,0,0,1-2.15136,1.47281,39.99822,39.99822,0,0,0-4.91666,3.07054c-1.15788.94758-2.45533,1.72363-3.67678,2.59547-.21136.15086-.47754.38222-.50742.60472-.20822,1.55082-.36435,3.10874-.52929,4.66522-.05444.51374-.09027,1.02962-.12652,1.54508-.095,1.35133-.268,2.70415-.24864,4.05406a3.36583,3.36583,0,0,1-.67581,2.30268l-1.16415-.31742a7.97426,7.97426,0,0,1-.34325-1.97017,18.871,18.871,0,0,0-.70455-5.1563c-.07513-.37563-.222-.68385-.65211-.75286a1.03329,1.03329,0,0,0-1.0965.52772c-.35383.5123-.77317.98-1.1724,1.4601a16.40695,16.40695,0,0,0-1.21482,1.44985c-.88036,1.3523-1.73825,2.72172-2.542,4.12058-.5455.94943-.98391,1.96036-1.471,2.94338-.06885.13895-.14194.27581-.21391.4132a19.30812,19.30812,0,0,0-1.27713,2.494,19.77165,19.77165,0,0,0-1.30825,3.67772c-.15563,1.0853-.68923,2.12871-.76415,3.21086-.19,2.74434-.22384,5.49979-.304,8.25126-.02556.87685-.02972,1.7566.0126,2.63231a.59356.59356,0,0,0,.92029.5461,1.88728,1.88728,0,0,0,.70843-.61918c.46974-.72071.88046-1.49314,1.29885-2.22992.54774-.96458,1.1886-1.85594,1.79342-2.77133.82478-1.24831,1.73765-2.43849,2.615-3.652.33523-.4637.67549-.92379,1.01536-1.38413.48633-.65871.984-1.30926,1.45967-1.97556.91764-1.28548,1.80129-2.59581,2.74082-3.86489.7511-1.01457,1.56079-1.986,2.35064-2.97158.70881-.88449,1.44215-1.74976,2.13636-2.64545a77.04576,77.04576,0,0,1,5.917-6.24372c.96373-.99242,1.9977-1.91632,2.99022-2.88117,1.27449-1.239,2.50007-2.53152,3.82093-3.7184,1.01884-.91549,2.18921-1.66085,3.22521-2.55913,1.36868-1.18671,2.49464-2.61929,3.94552-3.74967A4.709,4.709,0,0,1,165.17573,61.89282Z"/>
  </g>
</svg>
