<svg id="Layer_1" data-name="Layer 1" xmlns="http://www.w3.org/2000/svg" viewBox="0 0 600 600">
  <defs>
    <style>
      .cls-1 {
        fill: #945348;
      }
    </style>
  </defs>
  <title>winthrop_logo_manicule</title>
  <path class="cls-1" d="M116.63,498.05a36.79,36.79,0,0,1-11.09-18.49c-3.89-15.31-7.23-30.77-10.22-46.28-3.28-17-8-34.08-8.27-51.2-.3-16.86-2.73-33.72-1.18-50.58.8-8.75-1.12-15.26-10.31-18.06-.9-.27-1.49-1.54-2.8-3l7-9.79-8.37-15.5L85,282.49c.68-1.13,1.71-2.05,1.75-3,.57-15.28,3.14-30.87.93-45.75-2.54-17.05,3.63-30.73,9.61-45.33,4.4-10.76,7.13-22.2,11-33.19,1.56-4.39,3.51-9.08,6.62-12.38a134.7,134.7,0,0,1,17.57-15.06c2.09-1.56,5.37-1.72,8.17-2.11,3.23-.45,6.58-.15,9.79-.69,8.4-1.43,12.62,2.86,10.42,11.06-.46,1.7-1.73,3.18-2.82,5.1l-13,1.55c-9.34,11.33-19.41,23-28.82,35.26-2.76,3.58-4,8.51-5.34,13-2.05,6.64-2.67,13.89-5.61,20.06-7.38,15.46-5.53,31.65-5,47.73.2,6.42,1.95,12.8,3,19.27,14.79-5,26.12-20.31,26.82-36.72,8.26-5,17-10.18,25.77-15.47,2.18-1.32,4.88-2.42,6.21-4.38,7.59-11.22,18-20.58,22.28-34,.81-2.54,3.2-5,5.5-6.58,11.78-8.17,28.93-8,40.36,0,8.42,5.9,9.09,24.56,1,31.35-2.48,2.08-6.08,3.31-3.79,8.43,1.84-.15,3.91-.26,6-.51,8.75-1.05,17.51-2.11,26.25-3.25,3.62-.47,7.24-1,10.82-1.79,2.52-.52,5-2.07,7.44-2,20.34.17,39.29-9.64,60-7.87,6.67.57,13.69-2.37,20.48-4,26.53-6.25,53.56-9.4,80.5-13,20.37-2.75,40.89-4.45,61.36-6.45,10.25-1,20.52-1.76,30.8-2.38,2.8-.17,5.66.56,8.27.84,2.8,7.06-1.3,10.55-5.51,13.54-5.1,3.61-10.52,6.79-15.93,9.93-10.74,6.25-21.35,12.78-32.41,18.4-12.23,6.22-25.45,9.4-39.14,11-7.6.91-15,3.47-22.55,4.89-11.56,2.17-23.21,3.81-34.75,6-4.6.89-9,2.79-12.61,4-2.16,5.27-3.44,9.55-5.59,13.32-2.49,4.37-5.4,8-10.56,10.55-6.07,3-11.64,6.68-11.66,16.54,0,10.47-9.44,17.79-17.54,24.33-2.55,2.06-5.66,3.42-7.42,4.47-4.49,9.26-8.17,17.63-12.61,25.58-1.48,2.66-4.68,4.58-7.44,6.28-8.16,5-16.46,9.81-24.78,14.57-11.56,6.62-24.61,7.46-37.36,8.63-12.14,1.12-24.22-.63-36.13-3.81-8.51-2.27-17.43-3-26-5.17a94.3,94.3,0,0,1-16.42-6.38c-11.65-5.43-23.23-11-34.66-16.89-2.42-1.25-4-4.12-6.06-6.1-1.82-1.73-3.6-3.79-5.81-4.77-5.57-2.45-9.8-.1-10,6-.21,8.46.55,16.94.78,25.41.15,5.46.89,11.06,0,16.35-2.32,13.06.6,25.76,2.3,38.39,3.24,24,7.91,47.89,11.9,71.83C122,491.28,123,495.91,116.63,498.05ZM276,290.44c-1-7.32-1.12-7.7,5.64-9.24,11.1-2.52,22.38-4.24,33.47-6.78A127.12,127.12,0,0,0,336.06,268c2.78-1.17,4.48-4.91,7.88-8.9-4.72-1.89-7.67-4.17-10.43-4-7.28.55-14.87,1.12-21.64,3.59-15.74,5.76-31.77,5.67-48,4.49-1.27-.09-2.45-1.3-3.62-2,.28-7.66,3.33-12.24,10.87-13.41a72.52,72.52,0,0,0,14-3.09c20.34-7.5,41.61-8.19,62.88-9.09,10.22-.43,20.68.52,30.61-1.4,22.7-4.38,46-6,68.09-13.13,11.84-3.82,24.57-4.66,35.65-11,5.62-3.2,11.47-6.12,13.41-14.48-6.6,0-12.39-.54-18,.09-22.65,2.54-45.25,5.57-67.89,8.17-15.32,1.76-30.75,2.68-46,4.79-8.61,1.19-17,4.17-25.48,6.05-3.18.7-6.57.41-9.83.86-11.55,1.59-23.15,1.62-34.54,5.84-10.83,4-22.19,8-34.36,6.9-3.19-.28-6.51.75-9.76,1.29-5.78,1-11.54,2.09-17.33,3-6.17,1-12.43,1.59-18.51,2.95-20,4.45-39.48,11-60,13-3.09.3-6,2.4-10.25,4.19-.51,11.75-1.17,23.41-1.48,35.07-.23,8.72,0,17.46,0,26.18,0,2.54-.81,5.79.43,7.49,4,5.53,8.1,11.49,13.51,15.45a152.58,152.58,0,0,0,26.57,15.42c6.18,2.83,13.43,3.27,20.12,5.08,23.83,6.45,47.28,4.92,70.67-2.49,10.06-3.19,17.24-9.31,23.06-18.67-1.58-2.41-2.89-6.59-4.75-6.85-8.14-1.13-15.11-6.57-24.37-4.41-10.64,2.48-21.87,2.44-32-5.19,2.69-4.11,5.39-7.45,10.44-7.52,13.92-.19,27.85-.51,41.77-.31,10.05.15,19.94-.22,29.13-4.69,5.42-2.63,7.73-7.15,6.11-11.61-1.89-5.22-6.38-5.43-11-5-2.9.29-5.81,1.07-8.69,1C294.54,291.58,285.83,291,276,290.44ZM171.84,228.89a19.43,19.43,0,0,0,3.31,1.11c12,1.52,22.19-3.33,32.13-9.16,12.36-7.24,13.86-21.62,3.08-31.66-6.78,2.66-13.53,5.16-16.3,13.2-.72,2.07-3.77,3.28-5.63,5C181.82,213.59,174.22,219.06,171.84,228.89Zm-40.49,83.23c-1.24-5.43-2.62-11-3.76-16.65-.86-4.29,2-9.83-4.49-12.12-6.93-2.43-8.6,4.24-12.15,7.21-2.2,1.84-4.19,5.52-4,8.26.36,7.15,7.14,9.59,11.88,13.36C122.58,315.2,126.7,315.64,131.36,312.12Z"/>
</svg>
