<svg id="Layer_1" data-name="Layer 1" xmlns="http://www.w3.org/2000/svg" viewBox="0 0 600 600">
  <defs>
    <style>
      .cls-1 {
        fill: #c6ae80;
      }
    </style>
  </defs>
  <title>winthrop_logo_W_light</title>
  <path class="cls-1" d="M127.94,300.62c-28-2.47-45.62-27.72-48.24-56.7-3-33.31,16.66-59.57,35.76-84.34,17.91-23.22,27-39.89,57.39-46.32,30.1-6.37,52.77-1.51,68,26.71,37.93,70.23-36.35,102.19-41.41,168.63-1.37,18,7,43,10.54,62.09s1.29,49.62,19.23,21.56c13.1-20.48,20.45-44.79,35.92-64,9.64-12,22.44-20.72,28.83-35.2,7.17-16.24,7.28-36.72,12.42-54,4.72-15.84,12.77-62.86,40.45-56,32.38,8,3.11,47-4,59.28-16.92,29.34-31.9,59-19.64,92.6,3.17,8.68,16.34,53.93,28.29,53.63,10-.25,23.16-38.52,27.31-46.81,15.58-31.14,27.82-63.56,41.42-95.53,12.21-28.7,12.59-36.17-5.27-59.76-15.64-20.66-18.47-54.95,0-75.95,25.55-29.07,37.44,25,39.66,43,2.5,20.35,13.56,42.65,28.83,14.34,4.49-8.34-1.38-23.7,15.48-17.58,10.55,3.83,10,16.45,8.22,25.75-6,32.11-34.79,22.76-50.82,42.18-15.19,18.4-25,56.58-34.42,78.76-13.75,32.41-28.92,61.83-45.78,92.77-7.28,13.37-16.07,27.42-18.94,42.55-3,15.85,2,31,1,46.85-1.45,21.51-18.17,48.38-42.46,51.24-6.3.74-10.1-1-10.37-9.19-.32-9.56,3.44-33.87,5.95-43.31,3.67-13.81,15.41-25.35,15.94-40.27.52-14.61-7.21-37.83-12.41-51.19C307,366.37,293,335.55,272.48,354.88,250.39,375.68,239.91,415,228.42,442c-9.23,21.72-6.31,51.38-24.85,68.78-27.7,26-24.55-11.09-22.43-31.09,1.57-14.78-.62-31.12,3-45.4,4.27-16.65,7-16.88,2.87-35.74-5.74-26.08-21.18-67.62-12.54-93.12,14-41.46,92.64-136.22,23.9-167.11-53-23.83-128.32,97.28-85,136.69,12.88,11.72,31.54,4.34,44.37-4.34,7.3-4.94,21.93-20.68,20.73-.36-.38,6.46-19.85,23.69-25.75,26.76C146.52,300.33,135.53,301.29,127.94,300.62Z"/>
</svg>
