<svg xmlns="http://www.w3.org/2000/svg" viewBox="0 0 2000 1000">
  <defs>
    <style>
      .cls-1 {
        fill: #c6ae80;
      }
    </style>
  </defs>
  <title>winthrop_logo_whole_light</title>
  <g id="Layer_1" data-name="Layer 1">
    <g>
      <path class="cls-1" d="M144.91,689.36a47.75,47.75,0,0,0,8.12-.49c-2.32,6.8-11.6,12.43-19.73,12.43-6.3,0-22.22-2-34.16-2a35.54,35.54,0,0,0-5.47.49,21.23,21.23,0,0,1,9-10.45c1.49-.83,4.48-3.48,4.48-6.63V602.14c0-7.63-1.66-9.12-9-9.12H92.84c-5.8,0-17.58,1.82-17.58,9.12,0,2.49,1.83,4.31,5.47,5.64-3.65,4.31-7.13,5.64-10.11,5.64-7.63,0-9.95-5.64-9.95-12.6,0-11.94,3.65-23.88,12.77-27a5.73,5.73,0,0,0-.5,2.16c0,4.15,7,4.48,13.43,4.48h49.91c13.77,0,26.86-.66,28.52-6.63,5.14,2.32,7.3,8.79,7.3,15.09,0,7.29-3.49,23.38-19.24,25.37,2.82-4.31,3.49-8.29,3.49-12.93,0-7-3.65-8.29-17.25-8.29h-3.48c-8.29,0-9,6.3-9,12.1v73.63C126.67,688.21,140.43,689.36,144.91,689.36Z"/>
      <path class="cls-1" d="M207.28,656.53v17.74c0,11.44,2.16,15.25,11.11,15.25a34.17,34.17,0,0,0,5.47-.33c-3.65,9.62-11.77,13.93-18.24,13.93-9.29,0-15.26-7.79-15.26-16.42v-94c0-2.15-4.14-4.48-16.91-4.48,4.15-6.8,15.92-14.1,27.69-16.09,3.81,3.48,6.14,9.12,6.14,24v30.68c0,2.49,0,8.13,3,8.13,3.65,0,5.8-2.82,8.13-4.81,5.8-5.31,12.11-8.62,19.57-8.62,11.94,0,22.55,13.1,24.54,23.71C259,654.87,259,663.17,259,677.1c0,10.11,5.31,12.6,11.77,12.6a24.92,24.92,0,0,0,4.81-.5c-2.15,7.14-9.45,13.93-18.07,13.93a15.49,15.49,0,0,1-15.43-15.42c0-18.74,2.16-24,2.16-32,0-8.13-7.3-18.41-16.09-18.41C212.42,637.3,207.28,646.42,207.28,656.53Z"/>
      <path class="cls-1" d="M350.4,637.3a128.46,128.46,0,0,1-12.93,11.94L312.6,669.3c-5,4-6,5.64-6,8.29,0,8.13,12.43,10.61,23.21,10.61a28.1,28.1,0,0,0,18.74-7.46c-2.49,17.08-18.24,23.38-31.17,23.38-23.88,0-35-16.91-35-35.82,0-20.73,11.94-46.76,38.14-46.76C332.5,621.55,343.77,625.52,350.4,637.3Zm-49.25,30.35c6,0,24.37-15.75,24.37-21.72,0-8-7.63-10.94-14.59-10.94-11.11,0-14.76,10.28-14.76,19.73C296.18,659.68,297.17,667.64,301.16,667.64Z"/>
      <path class="cls-1" d="M124.92,913.08c-6.3,0-17.41-2-29.52-2a31.63,31.63,0,0,0-5.31.5,18.49,18.49,0,0,1,9-10.45c1.49-.83,4.48-3.65,4.48-6.63v-70c0-11.94-2.66-13.43-12.6-13.43a75.33,75.33,0,0,0-11.44,1.33C88.28,796.17,98.39,799,103,794c5-5.3,9-13.76,23.88-14.92-3.31,3-4.81,5.8-4.81,8.63s1.16,4.47,4,4.47h13.6c12.94,0,24-.49,32-5a38.47,38.47,0,0,1,1.16,10.11c0,11.94-6.47,19.73-16.91,23.22a17.9,17.9,0,0,0,1.16-6c0-8.12-4.31-9.12-25-9.12-8.46,0-9.95,2.32-9.95,8.12V837.3c0,3.65,3,4.31,6,4.31,18.24,0,23.38,0,36-4.81a11.62,11.62,0,0,1,1.33,5.48c0,8.79-.33,18.4-16.58,26.53,1.49-3.81,2.32-6.46,2.32-8.46,0-5.64-7.63-5.8-21.72-5.8-6.3,0-8,1-8,13.43v22.55c0,9.29,9.12,10.61,13.43,10.61a38.66,38.66,0,0,0,6.63-.5C139,907.27,132.88,913.08,124.92,913.08Z"/>
      <path class="cls-1" d="M231.57,863.67v28.85c0,5.47,4.64,8.12,10.94,8.12A22.3,22.3,0,0,0,248,900c-4.64,9.62-9.45,13.93-21.56,15.92-2-8.63-5.8-11.61-11.28-11.61-7.46,0-14.92,11.61-27.36,11.61-11.11,0-17.25-8.29-17.25-18.24,0-28.69,47.09-29.52,47.09-38s-11.44-12.77-20.89-12.77c-11.44,0-18.24,4.48-22.72,7.46,1.49-14.76,12.6-21.06,25.7-21.06C224.6,833.32,231.57,840.28,231.57,863.67Zm-13.76,9.62c-7.63.5-29,2.65-29,17.57,0,5.64,1,11.77,9.12,11.77,7.79,0,20.73-6.3,20.73-17.74A60.19,60.19,0,0,0,217.8,873.28Z"/>
      <path class="cls-1" d="M324.77,888.87c0,10.11,5.14,12.6,11.61,12.6a26.56,26.56,0,0,0,5-.5c-2.49,7.13-9.45,13.93-18.24,13.93a15.57,15.57,0,0,1-15.26-15.43c0-18.9,2-24,2-32,0-8.12-6.3-18.4-15.09-18.4-15.75,0-18.41,9.12-18.41,19.23V886c0,11.44,2.32,15.26,11.11,15.26a30.28,30.28,0,0,0,5.47-.33c-3.65,9.62-11.6,13.93-18.24,13.93-9.29,0-15.42-7.8-15.42-16.42v-38c0-7.63-3.65-12.44-11.77-12.44,3.48-8.29,11.61-14.76,21.56-14.76,1,8,6.47,11.11,10.94,11.11,8.79,0,11.77-11.11,24.54-11.11,14.09,0,14.26,11.11,25.37,11.11,8.79,0,11.77-11.11,24.71-11.11,11.94,0,21.56,13.1,23.54,23.71-3.31,9.78-3.48,17.91-3.48,31.84,0,10.11,5.31,12.6,11.61,12.6a28.35,28.35,0,0,0,5.14-.5c-2.32,7.13-9.62,13.93-18.41,13.93a15.68,15.68,0,0,1-15.26-15.43c0-18.9,2-24,2-32,0-8.12-6.3-18.4-15.09-18.4C327.92,849.07,324.77,859,324.77,888.87Z"/>
      <path class="cls-1" d="M426.45,847.91V886c0,11.44,2.32,15.26,11.11,15.26A31.2,31.2,0,0,0,443,901c-3.65,9.62-11.6,13.93-18.24,13.93-9.29,0-15.42-7.8-15.42-16.42v-38c0-7.63-3.65-12.44-11.77-12.44,3.81-8.62,13.43-14.59,31-14.76C427.11,837.13,426.45,842.93,426.45,847.91Zm-8.79-64c5.31,0,13.6,3.65,13.6,8,0,5.47-8.63,14.09-13.27,14.09-5,0-12.77-2.49-12.77-9.45C405.23,791.86,412.19,783.9,417.66,783.9Z"/>
      <path class="cls-1" d="M472.23,807.95V886c0,11.44,2.16,15.26,11.11,15.26a34.15,34.15,0,0,0,5.47-.33c-3.65,9.62-11.77,13.93-18.24,13.93-9.29,0-15.26-7.8-15.26-16.42v-94c0-2.15-4.14-4.47-16.91-4.47,4.14-6.8,16.42-14.93,27.69-16.09C469.91,787.39,472.23,793,472.23,807.95Z"/>
      <path class="cls-1" d="M563.6,846.08c0,13.43-8.13,41.29-16.09,56.71-12.11,23.38-27.36,52.57-47.09,52.57-8.13,0-12.94-3.32-14.76-6.14.33-7,3.81-13.93,10.11-17.25,2.15,4.48,6.3,7.63,9.29,7.63,13.93,0,23.38-18.74,23.38-25.37,0-2.82-.83-3.65-2.49-5.14-3-2.65-10.45-12.27-13.43-19.73-13.27-35.32-16.09-40.63-26.86-41.29a24.91,24.91,0,0,1,21.72-14.76c4.31,4.81,8.29,12.6,13.1,29.52,4,14.59,9,29.35,16.25,29.35,6.63,0,14.92-25,14.92-35,0-7.63-6.63-9.12-14.92-9.12,4-8.62,15.42-14.59,24.54-14.76C562.77,836.13,563.6,841.44,563.6,846.08Z"/>
      <path class="cls-1" d="M616.19,861.18c0-32.67,22.22-70.81,58.37-70.81,30.18,0,43.45,31.51,43.45,57.87,0,33.66-28.36,66.66-57.37,66.66C633.94,914.9,616.19,886.22,616.19,861.18Zm18.24-12.94c0,22.72,10.94,50.41,36,50.41,21.72,0,29.18-18.9,29.18-38.8,0-19.23-7.29-52.73-34.82-52.73C647.87,807.12,634.44,819.39,634.44,848.24Z"/>
      <path class="cls-1" d="M756.51,868.3V886c0,11.44,2.32,15.26,11.11,15.26a31.25,31.25,0,0,0,5.47-.33c-3.65,9.62-11.61,13.93-18.24,13.93-9.29,0-15.42-7.8-15.42-16.42v-38c0-7.63-3.65-12.44-11.77-12.44,3.48-8.29,11.61-14.76,21.56-14.76,1,8,6.47,11.11,10.94,11.11,8.79,0,14.26-11.11,27.2-11.11,11.94,0,22.55,13.1,24.54,23.71-3.31,9.78-3.48,17.91-3.48,31.84,0,10.11,5.31,12.6,11.44,12.6A28.35,28.35,0,0,0,825,901c-2.32,7.13-9.45,13.93-18.24,13.93a15.57,15.57,0,0,1-15.26-15.43c0-18.9,1.83-24,1.83-32,0-8.12-7.13-18.4-15.92-18.4C761.65,849.07,756.51,858.19,756.51,868.3Z"/>
      <path class="cls-1" d="M898,818.56c0,10.45,1.32,14.76,10.61,14.76,5.64,0,12.77,0,16.91-1.66-.33,7-4,13.43-19.24,14.59-7,.5-7.13,6.47-7.13,14.26V889.7c0,8.46,6.46,10.94,13.1,10.94s13.6-2.32,15.92-3.81C924.84,909.1,917,914.9,901.79,914.9c-16.58,0-19.4-12.6-19.4-28.52V860.85c0-14.1-6.63-14.26-10.94-14.26a15.32,15.32,0,0,0-2.49.17c1-8.62,10.28-9.45,11.77-13.43,2.16-6.8-3-29.52,20.56-32A43.8,43.8,0,0,0,898,818.56Z"/>
      <path class="cls-1" d="M953.37,868.3V886c0,11.44,2.15,15.26,11.11,15.26A34.2,34.2,0,0,0,970,901c-3.65,9.62-11.77,13.93-18.24,13.93-9.29,0-15.26-7.8-15.26-16.42v-94c0-2.15-4.14-4.47-16.91-4.47,4.14-6.8,15.92-14.1,27.69-16.09,3.81,3.49,6.14,9.12,6.14,24v30.68c0,2.49,0,8.12,3,8.12,3.65,0,5.8-2.82,8.13-4.8,5.8-5.31,12.1-8.63,19.57-8.63,11.94,0,22.55,13.1,24.54,23.71-3.48,9.62-3.48,17.91-3.48,31.84,0,10.11,5.31,12.6,11.77,12.6a24.92,24.92,0,0,0,4.81-.5c-2.16,7.13-9.45,13.93-18.08,13.93a15.5,15.5,0,0,1-15.42-15.43c0-18.74,2.16-24,2.16-32,0-8.12-7.3-18.4-16.09-18.4C958.51,849.07,953.37,858.19,953.37,868.3Z"/>
      <path class="cls-1" d="M1096.5,849.07A129,129,0,0,1,1083.56,861l-24.88,20.06c-5,4-6,5.64-6,8.29,0,8.13,12.44,10.61,23.22,10.61a28.12,28.12,0,0,0,18.74-7.46c-2.49,17.08-18.24,23.38-31.18,23.38-23.88,0-35-16.92-35-35.82,0-20.73,11.94-46.76,38.14-46.76C1078.59,833.32,1089.86,837.3,1096.5,849.07Zm-49.25,30.34c6,0,24.37-15.75,24.37-21.72,0-8-7.63-10.94-14.59-10.94-11.11,0-14.76,10.28-14.76,19.73C1042.27,871.46,1043.27,879.42,1047.25,879.42Z"/>
      <path class="cls-1" d="M1202.32,901.14a27,27,0,0,0,6.63-.5c-2.49,6.8-8.46,12.44-16.58,12.44-6.3,0-17.41-2-29.52-2a31.56,31.56,0,0,0-5.31.5,19.68,19.68,0,0,1,9-10.45c1.49-.83,4.48-3.48,4.48-6.63v-70c0-11.94-2.65-13.43-12.6-13.43a75.28,75.28,0,0,0-11.44,1.33c8.79-16.25,18.9-13.43,23.54-18.41,5-5.3,9-13.76,23.88-14.92-3.32,3-4.81,5.8-4.81,8.63s1.16,3.65,4,3.65c2,0,3.65-1,11.61-1,19.07,0,35.65,6.14,35.65,30.18,0,21.89-27.86,43.94-48.59,43.94-2.65,0-3.31,2-3.31,4.31v21.72C1188.89,900,1198,901.14,1202.32,901.14ZM1188.89,825v22.06c0,2.66,1.82,4.81,4.31,4.81,9,0,30-5.48,30-22.55,0-13.27-10.78-23.55-24.37-23.55C1190.21,805.79,1188.89,809.27,1188.89,825Z"/>
      <path class="cls-1" d="M1303.82,863.67v28.85c0,5.47,4.64,8.12,10.94,8.12a22.3,22.3,0,0,0,5.47-.66c-4.64,9.62-9.45,13.93-21.56,15.92-2-8.63-5.8-11.61-11.27-11.61-7.46,0-14.93,11.61-27.36,11.61-11.11,0-17.25-8.29-17.25-18.24,0-28.69,47.09-29.52,47.09-38s-11.44-12.77-20.89-12.77c-11.44,0-18.24,4.48-22.72,7.46,1.49-14.76,12.6-21.06,25.71-21.06C1296.86,833.32,1303.82,840.28,1303.82,863.67Zm-13.77,9.62c-7.63.5-29,2.65-29,17.57,0,5.64,1,11.77,9.12,11.77,7.79,0,20.73-6.3,20.73-17.74A60.19,60.19,0,0,0,1290.06,873.28Z"/>
      <path class="cls-1" d="M1354.24,940.77c20.89,0,27.19-16.91,27.19-36.14a3,3,0,0,0-3.31-3.15c-5.47,0-8.62,9.45-23.22,9.45-10.94,0-29.35-8.29-29.35-33.33,0-20.06,13.93-44.27,43.61-44.27,15.09,0,27.53,4.64,32.5,8.29-3.82,4.47-4.48,7.46-4.48,23.21v33.66c0,33-23.71,56.88-52.07,56.88-10.28,0-15.42-1-19.9-6.14,1-6.47,3.31-14.26,10.11-17.41C1337.5,939.78,1346,940.77,1354.24,940.77Zm27.86-66.49c0-23.05-8.12-27.37-18.9-27.37-11.44,0-22.22,5.64-22.22,19.07,0,18.24,10.45,31.34,23.22,31.34C1380.28,897.33,1382.1,884.06,1382.1,874.28Z"/>
      <path class="cls-1" d="M1477.13,849.07A129,129,0,0,1,1464.2,861l-24.88,20.06c-5,4-6,5.64-6,8.29,0,8.13,12.44,10.61,23.22,10.61a28.12,28.12,0,0,0,18.74-7.46c-2.49,17.08-18.24,23.38-31.18,23.38-23.88,0-35-16.92-35-35.82,0-20.73,11.94-46.76,38.14-46.76C1459.23,833.32,1470.5,837.3,1477.13,849.07Zm-49.25,30.34c6,0,24.38-15.75,24.38-21.72,0-8-7.63-10.94-14.59-10.94-11.11,0-14.76,10.28-14.76,19.73C1422.91,871.46,1423.9,879.42,1427.88,879.42Z"/>
    </g>
    <path class="cls-1" d="M1575.07,589c-2.17,15.87,1.47,41.1-6,55.76-4.41,8.69-16.49,17.4-23.13,24-24.17,24-61.63,38.23-87.22,7.13-19.56-23.77-9.46-51.13-1.59-77.28,3.88-12.88,19.43-27.82,21.45-39.29,3-17.28-.63-5.47-10.63-1.91-17.72,6.31-20.14,7-34.59-7.69-7.79-7.93-3.47-14.58-16-10-10.84,3.93-22.16,34.29-27.11,43.52-8.51,15.89-19.45,30-28.29,45.63-3.84,6.78-28.32,78.88-47.2,49.64-4.26-6.6,2.23-17.11,3.47-23.77,3.94-21.18,4.74-43.45,5.72-64.81,1.09-23.72,2.36-51.94-26.21-27.68-30.47,25.87-33,55.94-47.69,90.45-7.61,17.88-25.85,57.51-51.38,46.33-41.44-18.14,12.52-72,24.47-88.68,7.58-10.55,24.46-52.21,5.78-62-15.84-8.34-44.87,58.06-43,17.32,1.28-27.25,35.34-50.66,59.86-36.7,12.66,7.21,10.42,27.23,19.12,31.64,10.22,5.18,21.29-14.91,27.45-18.83,8.63-5.5,36.83-13.49,46.33-9,17.56,8.22,9.35,27.69,15.94,41.09,6.51,13.23,3.43,16.15,16.76,1.56,10.79-11.81,18.15-31.24,27.05-44.66,6-9,13.6-26.61,25.83-28.07,21.94-2.62,17.57,21.48,31.07,28.75,14.5,7.81,20-12.9,30.1-8,9.23,4.46-5,16.61.09,20.89,3.93,3.32,33.29-20,38.66-23.31,38.28-23.61,25.14,2.29,47.77,22.26,17.16,15.15,64,12.6,81.68,2,23.76-14.17,23.84-46,41.48-66.3,22.65-26.06,43-5.73,29.51,22.85-6.16,13-19.35,17.92-25.82,29.9-7.45,13.8-6.5,15,5.53,8.79,17-8.83,28.35-29,53-20.55,26.71,9.19,13.7,35.51,48.3,26.1,15.13-4.12,28.71-8.77,44.72-9.89,11.38-.8,25.7,2.19,35.89-3.95,29.9-18,1.14-50.27-18.47-60.18-12.83-6.48-41.83-16.63-13.95-24.21,23.63-6.43,56.11,24.13,63.52,44,5.5,14.76,3.46,29.77-2,44.4-6.23,16.82-5.95,13.18-23.06,18.11-26.29,7.58-56.31,1.22-82.94,11.26-47.76,18-33,117-88.27,127.56-11.65,2.22-29.89-5.08-35.5-16.48-7.26-14.76,4.74-27.12,12.35-39.69,8.84-14.6,16.86-28,29.15-40.1,9.41-9.24,22.85-17.4,23.39-32.15,1.39-38-30.85-11.2-36.88,7.64-3.11,9.71,1.94,20.15-8.34,26.49-18.56,11.44-14.13-8.58-22.46-9.85-6.48-1-36.4,84-38.43,89.21-15,39-23.48,78.31-27.19,119.75-2.15,24-7.2,47.23-8.84,71.2-1.12,16.31-2.5,36-15.78,48.37-10.79,10-29.64,6.76-43.09-1.36-12.39-7.48-12.33-17.74-10.06-32.38,3.11-20.09,14-40.24,20.05-59.83,5.26-16.9,9.06-35.87,15.45-52.15,7.68-19.56,19.51-33.72,23.85-55,4.57-22.42,14.66-39.09,23.08-60.51,5.27-13.41,42.92-86.94,31.68-94.76-10.91-7.59-40,12.78-52.36,13.61C1584.26,576.21,1576.1,563.8,1575.07,589Zm-70,81.56c56,1.8,81.67-104.17,28.75-115.53C1485.49,544.66,1455.34,668.63,1505.05,670.55Zm240-64.36c1.15-18.81-18,21.45-18.81,23.24-2.26,5.3-24.15,34.78-14.13,40.23C1732.13,680.5,1743.32,609.07,1745.09,606.19Zm-541.18,61.61c.31,21.8,36.07-26.45,20.44-31.78C1218.3,634,1204.11,663.78,1203.91,667.81Zm481.45-86.3c.82-.39,3.8-5.88,1.78-6C1684.93,575.36,1684.24,580.29,1685.36,581.51Z"/>
    <path class="cls-1" d="M381.95,505.24c-28-2.47-45.62-27.72-48.24-56.7-3-33.31,16.66-59.57,35.76-84.34,17.91-23.22,27-39.89,57.39-46.32,30.1-6.37,52.77-1.51,68,26.71,37.93,70.23-36.35,102.19-41.41,168.63-1.37,18,7,43,10.54,62.09s1.29,49.62,19.23,21.56c13.1-20.48,20.45-44.79,35.92-64,9.64-12,22.44-20.72,28.83-35.2,7.17-16.24,7.28-36.72,12.42-54,4.72-15.84,12.77-62.86,40.45-56,32.38,8,3.11,47-4,59.28-16.92,29.34-31.9,59-19.64,92.6,3.17,8.68,16.34,53.93,28.29,53.63,10-.25,23.16-38.52,27.31-46.81,15.58-31.14,27.82-63.56,41.42-95.53,12.21-28.7,12.59-36.17-5.27-59.76-15.64-20.66-18.47-54.95,0-75.95,25.55-29.07,37.44,25,39.66,43,2.5,20.35,13.56,42.65,28.83,14.34,4.49-8.34-1.38-23.7,15.48-17.58,10.55,3.83,10,16.45,8.22,25.75-6,32.11-34.79,22.76-50.82,42.18-15.19,18.4-25,56.58-34.42,78.76C662.16,534,647,563.44,630.14,594.38c-7.28,13.37-16.07,27.42-18.94,42.55-3,15.85,2,31,1,46.85C610.71,705.3,594,732.16,569.69,735c-6.3.74-10.1-1-10.37-9.19-.32-9.56,3.44-33.87,5.95-43.31,3.67-13.81,15.41-25.35,15.94-40.27.52-14.61-7.21-37.83-12.41-51.19C561,571,547,540.17,526.49,559.5c-22.09,20.8-32.57,60.12-44.06,87.16-9.23,21.72-6.31,51.38-24.85,68.78-27.7,26-24.55-11.09-22.43-31.09,1.57-14.78-.62-31.12,3-45.4,4.27-16.65,7-16.88,2.87-35.74-5.74-26.08-21.18-67.62-12.54-93.12,14-41.46,92.64-136.22,23.9-167.11-53-23.83-128.32,97.28-85,136.69,12.88,11.72,31.54,4.34,44.37-4.34,7.3-4.94,21.93-20.68,20.73-.36-.38,6.46-19.85,23.69-25.75,26.76C400.53,505,389.54,505.91,381.95,505.24Z"/>
    <path class="cls-1" d="M1296.13,396.85c-1,10.13-2.9,23.48-12.15,30.4-12.63,9.43-11.34,1.39-23.8.73-27.88-1.48-32.48,21.73-43.69,42-13.59,24.61-28.73,47.1-39.52,73.53-9.52,23.31-18.38,45.92-29,68.78-5.8,12.52-12.12,25.73-17.17,38.6-3,7.74-3.47,24.34-8.28,29.79-13.4,15.18-31-1-29.23-17.39,2.24-20.33,26.46-51.28,35.92-69.52,11.34-21.87,16.2-45.92,27.66-67.92,13.69-26.26,27.3-52.58,43.36-77.49,13.69-21.23,28.07-31.78,49.19-44.31,11.84-7,19.5-6,31.81-7.77"/>
    <path class="cls-1" d="M952.71,566c-.68,18.16-6.21,36.51-14.1,52.76-5.28,10.89-24.89,29.14-19.55,41.8,8.33,19.77,73.91-11.94,55.69,15.69-14.13,21.42-69,14-83.4-2.12-18.57-20.79,17-57.52,26.56-77.25,14-29,9.84-65.2-26.38-41.08-30.32,20.19-39.1,50.92-54.73,81.88-5.72,11.32-44.55,66.65-48.48,29.88-.36-3.34,31.46-69.27,26.08-68.68-2.85.31-26.69,34.2-30.79,38.78-17.09,19.08-31.15,40.75-48.08,60C724.83,709.88,704,733.49,686,715.24c-13.41-13.63.29-50.62,6.67-65.34,4.39-10.13,13.21-18.12,17.86-28.39,5.21-11.49,6.7-24.26,11.64-35.85,4.8-11.24,19-43.69,32.2-48.27,29-10,12.75,27.91,10.46,38.57-5.7,26.61-17.83,35.58-30.94,59.4-1.51,2.75-25,46.24-22,49.2,7.83,7.53,18.7-15.4,22.41-19.66C747.51,649.82,760.6,635,773.78,620c18.62-21.18,29.37-41.66,44.29-65.06,6.34-9.95,27.66-51.26,43.91-32,12.46,14.76-13,30,15,19.11,15.91-6.19,27.27-23.84,47.19-21C943.17,523.72,955.2,548.34,952.71,566Z"/>
    <path class="cls-1" d="M1028,688.85c-64.48-2.58-19-69,1.6-95.77,7.27-9.46,29.61-34.56,26.49-48.85-4.37-20.07-23.32,1.37-38.06-8.28-25.88-17,8.83-29.89,23.2-30.62,20.87-1.05,33.79,7.29,42.53-14.86,1.95-4.93,6.69-16.31,1.62-21.15-7.31-7-9.56,4.2-11.58,8.93-10.92,25.53-10,.22-.12-14.82,8.84-13.51,22.72-47.68,43.26-26.46,21.28,22-14,44-7.7,65,4.2,13.9,22.59,7.21,13,23.84-2.31,4-16.34,7.64-20,10-11,7.21-16.4,12-22.67,24-9.55,18.23-70.74,90.61-48.35,105.52,11.27,7.51,43.79-10.35,49.13,3.8C1086.59,685.75,1034.6,689.12,1028,688.85Z"/>
    <path class="cls-1" d="M1837,653.2c1.88-46.07,57-30,48.63,7.49C1878.91,691.11,1837.25,685.09,1837,653.2Z"/>
    <path class="cls-1" d="M801.62,448.57c-.88,21.63-33.16,32.85-39,8C756.52,430.56,807.9,415.35,801.62,448.57Z"/>
    <path class="cls-1" d="M938.52,636q-.72,1.22-1-.46Q938.4,634.93,938.52,636Z"/>
    <path class="cls-1" d="M1206.73,177.54c1.19-23.22,30.58-17.78,31.46,2.14C1239.2,202.53,1205.6,199.54,1206.73,177.54Z"/>
  </g>
  <g id="Isolation_Mode" data-name="Isolation Mode">
    <path class="cls-1" d="M1231.47,122c24.51-2,44.61,9.13,69-2.84,11.91-5.84,22.56-37.46,32.06-37.79,20.93-.73,4.72,38.58.51,45.06-11.24,17.31-36.27,19-44.3,37.31-4.53,10.35-2.08,21.4-8,32.59a141.5,141.5,0,0,1-22.84,30.4c-10.25,10.19-48.7,18.85-41.52,34.26,6.33,13.59,51.39-.95,43.89,26.33-5.88,21.41-38,2.93-51.42,12.09-5,3.39-11.94,16.42-10,22,3.18,9,9.06,4.54,17.65,4.54,21.93,0,51.35.24,67.58,18.85,11.72,13.44,14.59,36,12.85,53.19-1,10.18-2.53,20.88-12.22,30.58-11.21,11.21-19,11.51-25,4-3.67-4.55,6.88-14.56,10.39-20.78,4.54-8,4.62-17.31-2.24-29.51-10.8-19.21-38.16-24.45-52.9-19.91-36.3,11.18-18.19,53.31-51.76,59.82-32.08,6.22-10.87-17.16-10.87-35.33,0-22-33.29-49.66-44.87-26.74-9.68,19.16,18.66,14.09,23.3,21,10.72,16-42.79,16.24-51.26,4.77-10.43-14.11-.68-40.37,11.11-51.31,18.78-17.42,40.9-13.28,61.09-4.31,6.06,2.69,6.74,10.24,14.28,6.64,4.17-2,5.16-17.81,4.93-21.9-1.57-27.2-26.7-16.55-48.05-25.57-17.34-7.32-21.67-18-2.59-23.9,14.59-4.53,31,5.12,45.64,3.17,35.06-4.66,2.74-24.17-7.07-38-16.39-23-10-42.34-.64-65.61,8.59-21.4,17.87-38.65,23.73-60.86,6.16-23.34,7.12-44.75,28.3-57.11,22.35-13,37.14-6.61,23.36,18.53C1225.63,80.12,1195.65,120.5,1231.47,122Zm-16.19,33.13c-36.82-7.8-34.46,78.24,14.41,60,14.78-5.51,35.39-29.29,27.1-46.62C1249.92,154.17,1228.45,154.57,1215.28,155.1Z"/>
  </g>
</svg>
